name analog
datacolumns 19
datarows 47
range 0.2095 0.2325
endheader
time	ground_force_vx	ground_force_vy	ground_force_vz	ground_force_px	ground_force_py	ground_force_pz	l_ground_force_vx	l_ground_force_vy	l_ground_force_vz	l_ground_force_px	l_ground_force_py	l_ground_force_pz	ground_torque_x	ground_torque_y	ground_torque_z	l_ground_torque_x	l_ground_torque_y	l_ground_torque_z
0.2095	-0.0	-0.0	-0.0	-0.5260055065155029	-4.769036769866943	-37.8957633972168	-5.588779449462891	7.330699920654297	-593.3118896484375	-0.0	-0.0	-0.0	-0.0	-0.0	-0.0	158636.328125	-12025.4697265625	-2698.202880859375
0.21	-0.0	-0.0	-0.0	-1.275668978691101	-5.178600311279297	-39.55615234375	-6.058647155761719	7.425766468048096	-592.4452514648438	-0.0	-0.0	-0.0	-0.0	-0.0	-0.0	158425.046875	-12034.4150390625	-2826.038818359375
0.2105	-0.0	-0.0	-0.0	-1.2753829956054688	-4.385361194610596	-40.82788848876953	-6.226608276367188	8.125595092773438	-592.6141357421875	-0.0	-0.0	-0.0	-0.0	-0.0	-0.0	158604.296875	-11763.80078125	-2852.558349609375
0.211	-0.0	-0.0	-0.0	-1.257567286491394	-5.062205791473389	-43.547481536865234	-5.7926554679870605	8.13490104675293	-591.1810302734375	-0.0	-0.0	-0.0	-0.0	-0.0	-0.0	158397.90625	-11670.9033203125	-2935.66796875
0.2115	-0.0	-0.0	-0.0	-0.9459686875343324	-4.429612636566162	-44.36073303222656	-6.094521522521973	8.293135643005371	-593.2086181640625	-0.0	-0.0	-0.0	-0.0	-0.0	-0.0	158522.921875	-11594.0791015625	-2781.4755859375
0.212	-0.0	-0.0	-0.0	-1.6761884689331057	-4.5808186531066895	-46.12721633911133	-6.387176513671875	8.31112289428711	-591.6026611328125	-0.0	-0.0	-0.0	-0.0	-0.0	-0.0	158844.703125	-11447.59765625	-2737.432373046875
0.2125	-0.0	-0.0	-0.0	-1.4193875789642334	-4.235260009765625	-49.65958023071289	-6.094377517700195	8.152144432067871	-591.9512329101562	-0.0	-0.0	-0.0	-0.0	-0.0	-0.0	159045.234375	-11419.58984375	-2835.268798828125
0.213	-0.0	-0.0	-0.0	-2.1565470695495605	-4.127128601074219	-52.45496368408203	-6.378697395324707	8.098968505859375	-592.5821533203125	-0.0	-0.0	-0.0	-0.0	-0.0	-0.0	158732.234375	-11429.439453125	-2779.120849609375
0.2135	-0.0	-0.0	-0.0	-2.0124623775482178	-4.045597076416016	-55.28180313110352	-6.094230175018311	8.310470581054688	-592.2991943359375	-0.0	-0.0	-0.0	-0.0	-0.0	-0.0	158779.015625	-11315.01953125	-2832.038330078125
0.214	-0.0	-0.0	-0.0	-2.121133327484131	-3.4959867000579834	-58.274688720703125	-6.4946608543396	8.328991889953613	-589.9605102539062	-0.0	-0.0	-0.0	-0.0	-0.0	-0.0	158558.265625	-11291.931640625	-2835.8505859375
0.2145	-0.0	-0.0	-0.0	-2.732196807861328	-3.8254833221435542	-58.7644157409668	-6.086230278015137	8.417389869689941	-589.8231201171875	-0.0	-0.0	-0.0	-0.0	-0.0	-0.0	158527.25	-11117.9482421875	-2742.923828125
0.215	-0.0	-0.0	-0.0	-2.2371792793273926	-2.9343929290771484	-62.73004531860352	-6.352504253387451	8.805267333984375	-587.728515625	-0.0	-0.0	-0.0	-0.0	-0.0	-0.0	158133.984375	-10958.828125	-2710.744140625
0.2155	-0.0	-0.0	-0.0	-2.497894287109375	-2.393110752105713	-63.79012680053711	-6.394625186920166	9.070164680480955	-586.0896606445312	-0.0	-0.0	-0.0	-0.0	-0.0	-0.0	157797.09375	-11007.001953125	-2695.104736328125
0.216	-0.0	-0.0	-0.0	-2.9309661388397217	-2.508620262145996	-67.67568969726562	-6.101112842559815	9.232340812683104	-584.9642944335938	-0.0	-0.0	-0.0	-0.0	-0.0	-0.0	157559.859375	-11066.9931640625	-2576.10107421875
0.2165	-0.0	-0.0	-0.0	-2.6298413276672363	-1.8780092000961304	-70.44194793701172	-5.780233860015869	9.416322708129885	-582.8411865234375	-0.0	-0.0	-0.0	-0.0	-0.0	-0.0	157278.734375	-11049.787109375	-2381.60205078125
0.217	-0.0	-0.0	-0.0	-3.316424608230591	-0.9743965268135072	-72.0247802734375	-5.356740474700928	9.592950820922852	-582.169921875	-0.0	-0.0	-0.0	-0.0	-0.0	-0.0	157121.1875	-11299.4951171875	-2306.036376953125
0.2175	-0.0	-0.0	-0.0	-2.7494399547576904	-0.578615665435791	-73.32825469970703	-4.940431118011475	9.742637634277344	-579.5657958984375	-0.0	-0.0	-0.0	-0.0	-0.0	-0.0	156638.953125	-11567.955078125	-2205.3310546875
0.218	-0.0	-0.0	-0.0	-2.916095495223999	-0.0613039582967758	-75.49263763427734	-4.695271968841553	9.986721992492676	-578.7349853515625	-0.0	-0.0	-0.0	-0.0	-0.0	-0.0	156492.921875	-11670.9130859375	-1965.6640625
0.2185	-0.0	-0.0	-0.0	-3.071932554244995	0.0666445046663284	-77.6995849609375	-4.408024787902832	9.77631378173828	-577.7619018554688	-0.0	-0.0	-0.0	-0.0	-0.0	-0.0	156194.34375	-11891.95703125	-1858.2232666015625
0.219	-0.0	-0.0	-0.0	-2.982365608215332	0.2621867954730987	-78.42656707763672	-3.664727449417114	9.831171035766602	-576.4727172851562	-0.0	-0.0	-0.0	-0.0	-0.0	-0.0	155757.84375	-12007.42578125	-1677.75244140625
0.2195	-0.0	-0.0	-0.0	-2.577096462249756	0.8402165174484253	-80.48540496826172	-3.4539690017700195	9.737191200256348	-573.1981201171875	-0.0	-0.0	-0.0	-0.0	-0.0	-0.0	155253.03125	-12454.2158203125	-1599.9180908203125
0.22	-0.0	-0.0	-0.0	-2.6529572010040283	1.3746323585510254	-82.6819839477539	-3.254572868347168	9.571854591369627	-571.4959106445312	-0.0	-0.0	-0.0	-0.0	-0.0	-0.0	155153.625	-12683.6142578125	-1323.64404296875
0.2205	-0.0	-0.0	-0.0	-3.0095138549804688	1.519782781600952	-83.48025512695312	-2.522338390350342	9.306748390197754	-571.540283203125	-0.0	-0.0	-0.0	-0.0	-0.0	-0.0	154545.40625	-12915.5146484375	-1243.541015625
0.221	-0.0	-0.0	-0.0	-3.463929414749145	2.086930990219116	-86.5805892944336	-2.2735183238983154	9.538742065429688	-569.8154296875	-0.0	-0.0	-0.0	-0.0	-0.0	-0.0	154267.40625	-13265.8662109375	-1234.0616455078125
0.2215	-0.0	-0.0	-0.0	-3.398284673690796	2.3457210063934326	-87.44356536865234	-2.222664356231689	10.04085636138916	-569.246337890625	-0.0	-0.0	-0.0	-0.0	-0.0	-0.0	154062.078125	-13357.9287109375	-1146.58544921875
0.222	-0.0	-0.0	-0.0	-3.243934392929077	2.5279781818389893	-89.6107177734375	-1.531411051750183	10.296427726745604	-568.65771484375	-0.0	-0.0	-0.0	-0.0	-0.0	-0.0	153825.28125	-13399.46484375	-996.1195068359376
0.2225	-0.0	-0.0	-0.0	-3.443313837051392	2.9376111030578613	-90.86546325683594	-1.871826767921448	10.570638656616213	-567.371337890625	-0.0	-0.0	-0.0	-0.0	-0.0	-0.0	153948.1875	-13632.7841796875	-988.4397583007812
0.223	-0.0	-0.0	-0.0	-3.1544394493103027	3.030433654785156	-90.4855728149414	-2.3107383251190186	11.249120712280272	-566.213134765625	-0.0	-0.0	-0.0	-0.0	-0.0	-0.0	153798.65625	-13204.720703125	-1097.779541015625
0.2235	-0.0	-0.0	-0.0	-2.854736328125	3.9217376708984375	-93.2655029296875	-2.516165971755981	11.574163436889648	-565.5303955078125	-0.0	-0.0	-0.0	-0.0	-0.0	-0.0	153690.203125	-13118.6044921875	-1155.747314453125
0.224	-0.0	-0.0	-0.0	-2.909114122390747	4.068251609802246	-93.00001525878906	-3.314413070678711	11.831307411193848	-566.3539428710938	-0.0	-0.0	-0.0	-0.0	-0.0	-0.0	153277.71875	-13125.669921875	-1144.2349853515625
0.2245	-0.0	-0.0	-0.0	-2.497894287109375	4.099998474121094	-93.56997680664062	-3.104877471923828	12.011749267578123	-565.2479248046875	-0.0	-0.0	-0.0	-0.0	-0.0	-0.0	153224.984375	-13000.5205078125	-1215.3828125
0.225	-0.0	-0.0	-0.0	-2.2040390968322754	4.189128875732422	-95.24433135986328	-3.250465154647827	11.92004680633545	-564.1036987304688	-0.0	-0.0	-0.0	-0.0	-0.0	-0.0	152984.015625	-12657.6025390625	-1006.7260131835938
0.2255	-0.0	-0.0	-0.0	-2.1386077404022217	4.671004295349121	-96.56165313720705	-3.523136138916016	12.19477653503418	-564.3411865234375	-0.0	-0.0	-0.0	-0.0	-0.0	-0.0	152667.578125	-12712.224609375	-1096.9776611328125
0.226	-0.0	-0.0	-0.0	-2.054072618484497	4.481029510498047	-96.17089080810548	-4.375401020050049	11.892000198364258	-563.53076171875	-0.0	-0.0	-0.0	-0.0	-0.0	-0.0	152662.4375	-12489.48828125	-1167.5440673828125
0.2265	-0.0	-0.0	-0.0	-1.728066086769104	4.873127460479736	-97.4776611328125	-4.409651279449463	12.011749267578123	-564.0945434570312	-0.0	-0.0	-0.0	-0.0	-0.0	-0.0	152700.8125	-12200.37890625	-1117.7386474609375
0.227	-0.0	-0.0	-0.0	-1.636730074882507	4.783933162689209	-96.2956314086914	-4.020698547363281	11.661022186279297	-562.586181640625	-0.0	-0.0	-0.0	-0.0	-0.0	-0.0	152229.71875	-12295.59765625	-1087.8658447265625
0.2275	-0.0	-0.0	-0.0	-1.4581632614135742	5.108028411865234	-97.59957885742188	-3.963199615478516	11.9210844039917	-561.784912109375	-0.0	-0.0	-0.0	-0.0	-0.0	-0.0	151843.890625	-11942.044921875	-979.4910278320312
0.228	-0.0	-0.0	-0.0	-1.189019799232483	4.634780883789063	-96.8926239013672	-3.6040236949920654	11.50843334197998	-561.0783081054688	-0.0	-0.0	-0.0	-0.0	-0.0	-0.0	151466.9375	-12040.2529296875	-808.7960815429688
0.2285	-0.0	-0.0	-0.0	-0.953140914440155	4.635951519012451	-95.35858154296876	-3.5426101684570312	11.06900691986084	-560.9804077148438	-0.0	-0.0	-0.0	-0.0	-0.0	-0.0	151185.78125	-11802.9189453125	-830.301025390625
0.229	-0.0	-0.0	-0.0	-0.1195730119943618	4.8443145751953125	-93.239501953125	-3.2191720008850098	11.335750579833984	-559.575927734375	-0.0	-0.0	-0.0	-0.0	-0.0	-0.0	150686.390625	-11690.45703125	-682.2545166015625
0.2295	-0.0	-0.0	-0.0	0.3288505673408508	4.337928771972656	-94.42170715332033	-3.3113629817962646	10.834630966186523	-558.0587158203125	-0.0	-0.0	-0.0	-0.0	-0.0	-0.0	150074.46875	-11674.8076171875	-652.2119750976562
0.23	-0.0	-0.0	-0.0	0.6524264812469482	4.396921634674072	-91.5906219482422	-2.9261484146118164	10.659218788146973	-556.3131713867188	-0.0	-0.0	-0.0	-0.0	-0.0	-0.0	149667.109375	-11634.984375	-622.7556762695312
0.2305	-0.0	-0.0	-0.0	1.486640453338623	4.248951435089111	-89.11747741699219	-2.455765962600708	10.332566261291504	-556.8968505859375	-0.0	-0.0	-0.0	-0.0	-0.0	-0.0	149220.75	-11512.4423828125	-443.7229919433594
0.231	-0.0	-0.0	-0.0	2.260073184967041	3.862280607223511	-86.64666748046875	-2.247044801712036	10.097819328308104	-555.734130859375	-0.0	-0.0	-0.0	-0.0	-0.0	-0.0	148728.015625	-11365.6552734375	-305.7589416503906
0.2315	-0.0	-0.0	-0.0	2.765308141708374	3.9812304973602295	-83.70364379882812	-1.9509700536727903	10.12843894958496	-555.73388671875	-0.0	-0.0	-0.0	-0.0	-0.0	-0.0	148725.6875	-11406.9697265625	-374.6338195800781
0.232	-0.0	-0.0	-0.0	2.9439468383789062	3.832607269287109	-82.28959655761719	-2.2476348876953125	10.01052474975586	-555.6160278320312	-0.0	-0.0	-0.0	-0.0	-0.0	-0.0	148842.6875	-11481.96484375	-345.1856384277344
0.2325	-0.0	-0.0	-0.0	3.687016010284424	3.7135910987854	-75.93577575683594	-2.395191192626953	10.21595859527588	-557.8292236328125	-0.0	-0.0	-0.0	-0.0	-0.0	-0.0	148942.453125	-11373.341796875	-384.7411193847656
